<svg width="1200" height="900" viewBox="0 0 1200 900" fill="none" xmlns="http://www.w3.org/2000/svg">
  <rect width="1200" height="900" fill="#F4EEE2"/>
  <rect width="1200" height="900" fill="url(#paint0_linear)"/>
  <circle cx="926" cy="180" r="92" fill="#F2D89E" fill-opacity="0.5"/>
  <path d="M0 706C155 638 298 620 434 648C557 674 683 733 813 736C941 739 1054 693 1200 626V900H0V706Z" fill="#355B35"/>
  <rect x="370" y="284" width="460" height="300" rx="24" fill="#F6E0B6"/>
  <rect x="428" y="332" width="344" height="252" rx="18" fill="#EBC982"/>
  <path d="M598 186L724 284H472L598 186Z" fill="#D9A857"/>
  <rect x="566" y="392" width="64" height="192" rx="18" fill="#A9552B"/>
  <rect x="504" y="392" width="48" height="112" rx="14" fill="#F7E7C3"/>
  <rect x="644" y="392" width="48" height="112" rx="14" fill="#F7E7C3"/>
  <circle cx="598" cy="344" r="30" fill="#FFF6E6"/>
  <text x="110" y="118" fill="#5A3B18" font-family="Georgia, serif" font-size="56" font-style="italic">Maa Baglabukhi Temple</text>
  <text x="110" y="168" fill="#886438" font-family="Arial, sans-serif" font-size="22" letter-spacing="2">Nearby attraction placeholder</text>
  <defs>
    <linearGradient id="paint0_linear" x1="600" y1="0" x2="600" y2="900" gradientUnits="userSpaceOnUse">
      <stop stop-color="#FBF5E9"/>
      <stop offset="1" stop-color="#EADFBF"/>
    </linearGradient>
  </defs>
</svg>
