<svg width="1600" height="1000" viewBox="0 0 1600 1000" fill="none" xmlns="http://www.w3.org/2000/svg">
  <rect width="1600" height="1000" fill="#16321E"/>
  <rect width="1600" height="1000" fill="url(#attractionsHeroBg)"/>
  <circle cx="1262" cy="170" r="118" fill="#E9CC81" fill-opacity="0.3"/>
  <path d="M0 754C147 702 299 690 456 726C600 758 715 810 870 816C1062 824 1202 743 1371 728C1448 721 1521 725 1600 744V1000H0V754Z" fill="#214A31"/>
  <path d="M270 624C328 516 406 454 508 438C486 512 464 574 460 650H270V624Z" fill="#F6F1E4"/>
  <rect x="418" y="430" width="72" height="220" rx="18" fill="#F6F1E4"/>
  <path d="M1030 610C1094 474 1185 392 1302 360C1270 474 1248 566 1244 650H1030V610Z" fill="#F1E2BC"/>
  <rect x="1176" y="366" width="76" height="284" rx="18" fill="#F1E2BC"/>
  <path d="M620 624C688 540 770 492 866 482C842 542 822 596 820 650H620V624Z" fill="#E8D08D"/>
  <rect x="768" y="478" width="64" height="172" rx="18" fill="#E8D08D"/>
  <path d="M170 704C386 662 617 660 848 694C1056 724 1238 788 1600 760V1000H0V760C51 738 106 720 170 704Z" fill="#193423"/>
  <text x="152" y="126" fill="#FFFFFF" font-family="Georgia, serif" font-size="60" font-style="italic">Nearby Attractions</text>
  <text x="152" y="892" fill="#EDF5E6" font-family="Georgia, serif" font-size="28">Temple visits, peaceful stays, and meaningful regional journeys from Madhuban</text>
  <defs>
    <linearGradient id="attractionsHeroBg" x1="800" y1="0" x2="800" y2="1000" gradientUnits="userSpaceOnUse">
      <stop stop-color="#3B6141"/>
      <stop offset="0.55" stop-color="#274931"/>
      <stop offset="1" stop-color="#16241B"/>
    </linearGradient>
  </defs>
</svg>
