<svg width="1600" height="1000" viewBox="0 0 1600 1000" fill="none" xmlns="http://www.w3.org/2000/svg">
  <rect width="1600" height="1000" fill="#F3EFE5"/>
  <rect width="1600" height="1000" fill="url(#banquetTwoBg)"/>
  <path d="M0 760C131 708 267 688 408 714C544 739 652 796 790 804C979 816 1115 729 1277 716C1384 708 1488 729 1600 771V1000H0V760Z" fill="#DEE6CF"/>
  <rect x="226" y="168" width="1148" height="600" rx="40" fill="#FFFFFF" fill-opacity="0.9"/>
  <rect x="284" y="228" width="1032" height="480" rx="30" fill="#E7E0D2"/>
  <rect x="360" y="294" width="434" height="254" rx="24" fill="#F7F3EA"/>
  <rect x="836" y="294" width="404" height="254" rx="24" fill="#47624F"/>
  <rect x="860" y="318" width="356" height="132" rx="20" fill="#627B68"/>
  <rect x="360" y="584" width="880" height="62" rx="18" fill="#D0B97F"/>
  <circle cx="544" cy="242" r="28" fill="#EACD83"/>
  <circle cx="808" cy="210" r="36" fill="#EACD83"/>
  <circle cx="1074" cy="242" r="28" fill="#EACD83"/>
  <text x="152" y="122" fill="#24412F" font-family="Georgia, serif" font-size="60" font-style="italic">Hall Overview</text>
  <text x="152" y="892" fill="#31513B" font-family="Georgia, serif" font-size="28">Elegant interiors, stage-ready layouts, and dining support for hosted functions</text>
  <defs>
    <linearGradient id="banquetTwoBg" x1="800" y1="0" x2="800" y2="1000" gradientUnits="userSpaceOnUse">
      <stop stop-color="#FBF9F4"/>
      <stop offset="1" stop-color="#ECE7DB"/>
    </linearGradient>
  </defs>
</svg>
