<svg width="1600" height="1000" viewBox="0 0 1600 1000" fill="none" xmlns="http://www.w3.org/2000/svg">
  <rect width="1600" height="1000" fill="#223226"/>
  <rect width="1600" height="1000" fill="url(#banquetOneBg)"/>
  <circle cx="1265" cy="160" r="118" fill="#E7C575" fill-opacity="0.28"/>
  <rect x="220" y="174" width="1160" height="586" rx="38" fill="#F7F4EC" fill-opacity="0.94"/>
  <rect x="270" y="232" width="1060" height="430" rx="28" fill="#E5E7D9"/>
  <rect x="474" y="276" width="650" height="168" rx="22" fill="#31593E"/>
  <rect x="638" y="306" width="320" height="108" rx="18" fill="#F7E3B0"/>
  <rect x="324" y="510" width="220" height="112" rx="18" fill="#FDFBF7"/>
  <rect x="586" y="510" width="220" height="112" rx="18" fill="#FDFBF7"/>
  <rect x="848" y="510" width="220" height="112" rx="18" fill="#FDFBF7"/>
  <rect x="1110" y="510" width="170" height="112" rx="18" fill="#FDFBF7"/>
  <circle cx="474" cy="216" r="30" fill="#F3D897"/>
  <circle cx="801" cy="198" r="38" fill="#F3D897"/>
  <circle cx="1135" cy="216" r="30" fill="#F3D897"/>
  <path d="M0 820C174 756 365 747 553 787C708 820 859 870 1024 866C1222 861 1402 786 1600 761V1000H0V820Z" fill="#203B29"/>
  <text x="156" y="124" fill="#FFFFFF" font-family="Georgia, serif" font-size="62" font-style="italic">Banquet Hall</text>
  <text x="156" y="892" fill="#F3F6EE" font-family="Georgia, serif" font-size="28">Indoor celebrations with formal structure and warm resort hospitality</text>
  <defs>
    <linearGradient id="banquetOneBg" x1="800" y1="0" x2="800" y2="1000" gradientUnits="userSpaceOnUse">
      <stop stop-color="#314B36"/>
      <stop offset="0.55" stop-color="#24392A"/>
      <stop offset="1" stop-color="#18231A"/>
    </linearGradient>
  </defs>
</svg>
