<svg width="1600" height="1000" viewBox="0 0 1600 1000" fill="none" xmlns="http://www.w3.org/2000/svg">
  <rect width="1600" height="1000" fill="#2E3B2E"/>
  <rect width="1600" height="1000" fill="url(#banquetFourBg)"/>
  <circle cx="1180" cy="166" r="120" fill="#EBCB7B" fill-opacity="0.3"/>
  <rect x="214" y="184" width="1172" height="570" rx="42" fill="#F8F5ED" fill-opacity="0.94"/>
  <rect x="270" y="240" width="1060" height="456" rx="30" fill="#ECE5D6"/>
  <rect x="318" y="300" width="332" height="160" rx="24" fill="#F9F6F0"/>
  <rect x="686" y="282" width="592" height="214" rx="26" fill="#4E6A56"/>
  <rect x="734" y="326" width="496" height="126" rx="20" fill="#687F6E"/>
  <circle cx="436" cy="380" r="52" fill="#DAB45B"/>
  <circle cx="552" cy="380" r="30" fill="#EFCF84"/>
  <path d="M334 578C398 534 469 518 550 520C636 522 707 550 760 598V632H334V578Z" fill="#D7C393"/>
  <path d="M0 812C171 760 348 746 520 780C653 807 754 852 890 856C1079 863 1228 789 1390 776C1463 770 1536 774 1600 790V1000H0V812Z" fill="#243A28"/>
  <text x="156" y="126" fill="#FFFFFF" font-family="Georgia, serif" font-size="60" font-style="italic">Decor Mood</text>
  <text x="156" y="892" fill="#EFF5E8" font-family="Georgia, serif" font-size="28">Soft lighting, stage focus, and details that elevate hosted celebrations</text>
  <defs>
    <linearGradient id="banquetFourBg" x1="800" y1="0" x2="800" y2="1000" gradientUnits="userSpaceOnUse">
      <stop stop-color="#4A6551"/>
      <stop offset="0.55" stop-color="#324B38"/>
      <stop offset="1" stop-color="#18251C"/>
    </linearGradient>
  </defs>
</svg>
