<svg width="1600" height="1000" viewBox="0 0 1600 1000" fill="none" xmlns="http://www.w3.org/2000/svg">
  <rect width="1600" height="1000" fill="#2A4230"/>
  <rect width="1600" height="1000" fill="url(#eventsThreeBg)"/>
  <circle cx="1240" cy="168" r="118" fill="#E8C474" fill-opacity="0.28"/>
  <path d="M0 796C174 739 359 729 532 770C655 798 757 848 896 856C1062 865 1212 797 1381 783C1459 777 1533 780 1600 794V1000H0V796Z" fill="#1E3C2A"/>
  <rect x="244" y="224" width="1112" height="500" rx="38" fill="#F8F5ED" fill-opacity="0.92"/>
  <rect x="304" y="284" width="992" height="380" rx="28" fill="#E0E5D6"/>
  <rect x="382" y="360" width="232" height="164" rx="24" fill="#FFF8EC"/>
  <rect x="664" y="360" width="272" height="164" rx="24" fill="#FFF8EC"/>
  <rect x="986" y="360" width="232" height="164" rx="24" fill="#FFF8EC"/>
  <circle cx="500" cy="314" r="30" fill="#EBCB7B"/>
  <circle cx="800" cy="290" r="38" fill="#EBCB7B"/>
  <circle cx="1098" cy="314" r="30" fill="#EBCB7B"/>
  <text x="152" y="126" fill="#FFFFFF" font-family="Georgia, serif" font-size="60" font-style="italic">Small Gatherings</text>
  <text x="152" y="892" fill="#EDF5E6" font-family="Georgia, serif" font-size="28">Warm social events, anniversaries, and intimate functions with easy hosting</text>
  <defs>
    <linearGradient id="eventsThreeBg" x1="800" y1="0" x2="800" y2="1000" gradientUnits="userSpaceOnUse">
      <stop stop-color="#46634B"/>
      <stop offset="0.56" stop-color="#304A37"/>
      <stop offset="1" stop-color="#1A271D"/>
    </linearGradient>
  </defs>
</svg>
