<svg width="1600" height="1000" viewBox="0 0 1600 1000" fill="none" xmlns="http://www.w3.org/2000/svg">
  <rect width="1600" height="1000" fill="#F5F4ED"/>
  <rect width="1600" height="1000" fill="url(#eventsTwoBg)"/>
  <path d="M0 758C158 717 296 713 444 742C611 775 725 833 886 838C1062 844 1206 775 1371 760C1448 753 1524 755 1600 768V1000H0V758Z" fill="#DFE7D1"/>
  <rect x="212" y="190" width="1176" height="566" rx="40" fill="#FFFFFF" fill-opacity="0.9"/>
  <rect x="270" y="250" width="1060" height="444" rx="28" fill="#E9E3D5"/>
  <rect x="348" y="330" width="904" height="74" rx="18" fill="#3F6649"/>
  <rect x="360" y="438" width="180" height="182" rx="18" fill="#F9F5EC"/>
  <rect x="572" y="438" width="180" height="182" rx="18" fill="#F9F5EC"/>
  <rect x="784" y="438" width="180" height="182" rx="18" fill="#F9F5EC"/>
  <rect x="996" y="438" width="180" height="182" rx="18" fill="#F9F5EC"/>
  <circle cx="802" cy="238" r="34" fill="#EBCB7B"/>
  <text x="150" y="126" fill="#274230" font-family="Georgia, serif" font-size="60" font-style="italic">Corporate Meets</text>
  <text x="150" y="892" fill="#35513B" font-family="Georgia, serif" font-size="28">Conference-friendly layouts for presentations, business gatherings, and teams</text>
  <defs>
    <linearGradient id="eventsTwoBg" x1="800" y1="0" x2="800" y2="1000" gradientUnits="userSpaceOnUse">
      <stop stop-color="#FBF9F4"/>
      <stop offset="1" stop-color="#ECE8DE"/>
    </linearGradient>
  </defs>
</svg>
