<svg width="1600" height="1000" viewBox="0 0 1600 1000" fill="none" xmlns="http://www.w3.org/2000/svg">
  <rect width="1600" height="1000" fill="#15331E"/>
  <rect width="1600" height="1000" fill="url(#galleryHeroBg)"/>
  <circle cx="1240" cy="170" r="116" fill="#E8D08D" fill-opacity="0.34"/>
  <path d="M0 724C151 668 290 651 438 690C582 728 700 788 836 790C1015 794 1144 698 1301 679C1404 666 1504 683 1600 729V1000H0V724Z" fill="#214D31"/>
  <rect x="190" y="192" width="328" height="430" rx="28" fill="#F9F7F1" fill-opacity="0.92"/>
  <rect x="222" y="226" width="264" height="252" rx="22" fill="#D9E7C4"/>
  <circle cx="354" cy="343" r="54" fill="#7AA06A"/>
  <path d="M242 455C286 407 331 382 394 384C446 387 493 414 531 456V488H222V455Z" fill="#F4E9C8"/>
  <rect x="564" y="266" width="370" height="232" rx="28" fill="#F9F7F1" fill-opacity="0.94"/>
  <rect x="602" y="304" width="294" height="122" rx="20" fill="#CBDDB8"/>
  <rect x="602" y="442" width="208" height="22" rx="11" fill="#D4C287"/>
  <rect x="956" y="194" width="440" height="512" rx="32" fill="#F9F7F1" fill-opacity="0.92"/>
  <rect x="995" y="234" width="362" height="222" rx="24" fill="#2D6141"/>
  <rect x="995" y="478" width="362" height="188" rx="24" fill="#DDE9C9"/>
  <circle cx="1078" cy="569" r="30" fill="#84A777"/>
  <circle cx="1171" cy="560" r="24" fill="#BFD49F"/>
  <circle cx="1256" cy="581" r="34" fill="#94B887"/>
  <text x="160" y="130" fill="#FFFFFF" font-family="Georgia, serif" font-size="64" font-style="italic">Resort Gallery</text>
  <text x="160" y="888" fill="#F3F6EE" font-family="Georgia, serif" font-size="28">Rooms, weddings, leisure, dining, and celebration moments at Madhuban</text>
  <defs>
    <linearGradient id="galleryHeroBg" x1="800" y1="0" x2="800" y2="1000" gradientUnits="userSpaceOnUse">
      <stop stop-color="#365E3C"/>
      <stop offset="0.56" stop-color="#214D31"/>
      <stop offset="1" stop-color="#13281A"/>
    </linearGradient>
  </defs>
</svg>
