<svg width="1200" height="1400" viewBox="0 0 1200 1400" fill="none" xmlns="http://www.w3.org/2000/svg">
  <rect width="1200" height="1400" fill="#1E3823"/>
  <rect width="1200" height="1400" fill="url(#paint0_linear)"/>
  <circle cx="864" cy="212" r="130" fill="#F3D7A2" fill-opacity="0.45"/>
  <path d="M0 1038C132 934 292 882 461 900C612 916 711 1012 856 1030C968 1043 1080 1008 1200 952V1400H0V1038Z" fill="#214B2E"/>
  <path d="M202 868C287 748 423 664 582 651C736 639 892 703 1004 825L940 915C846 824 734 778 609 787C493 796 384 855 312 953L202 868Z" fill="#E9F0D6"/>
  <rect x="330" y="804" width="540" height="34" rx="17" fill="#C79E59"/>
  <rect x="392" y="604" width="28" height="352" rx="14" fill="#D9BA81"/>
  <rect x="780" y="604" width="28" height="352" rx="14" fill="#D9BA81"/>
  <path d="M600 498C663 498 714 549 714 612V619H486V612C486 549 537 498 600 498Z" fill="#FCF7EE"/>
  <circle cx="489" cy="656" r="40" fill="#F6E4B8"/>
  <circle cx="711" cy="656" r="40" fill="#F6E4B8"/>
  <circle cx="600" cy="598" r="52" fill="#F8EAD2"/>
  <circle cx="447" cy="742" r="54" fill="#F1CABB"/>
  <circle cx="536" cy="708" r="42" fill="#F0E3A8"/>
  <circle cx="663" cy="708" r="42" fill="#F0E3A8"/>
  <circle cx="753" cy="742" r="54" fill="#F1CABB"/>
  <path d="M84 976C144 846 267 748 402 717C341 857 239 955 112 1021L84 976Z" fill="#5F8D50"/>
  <path d="M1128 987C1067 851 936 755 792 730C849 864 954 968 1082 1031L1128 987Z" fill="#5F8D50"/>
  <text x="100" y="132" fill="#FFFFFF" font-family="Georgia, serif" font-size="58" font-style="italic">Your Perfect Wedding Awaits</text>
  <text x="100" y="194" fill="#F7F2E6" font-family="Arial, sans-serif" font-size="24" letter-spacing="2.4">Lush lawns, elegant decor, and heartfelt celebrations</text>
  <defs>
    <linearGradient id="paint0_linear" x1="600" y1="0" x2="600" y2="1400" gradientUnits="userSpaceOnUse">
      <stop stop-color="#496B46"/>
      <stop offset="0.62" stop-color="#325939"/>
      <stop offset="1" stop-color="#1E3823"/>
    </linearGradient>
  </defs>
</svg>
