<svg width="1600" height="1000" viewBox="0 0 1600 1000" fill="none" xmlns="http://www.w3.org/2000/svg">
  <rect width="1600" height="1000" fill="#16341C"/>
  <rect width="1600" height="1000" fill="url(#paint0_linear)"/>
  <circle cx="1290" cy="180" r="120" fill="#F3E2A8" fill-opacity="0.4"/>
  <path d="M0 714C113 650 235 631 367 662C488 690 616 738 739 744C908 752 1008 635 1163 602C1288 575 1414 603 1600 699V1000H0V714Z" fill="#173A22"/>
  <path d="M0 775C126 734 238 724 356 742C509 765 642 828 806 826C973 824 1113 728 1270 716C1374 708 1488 731 1600 790V1000H0V775Z" fill="#245133"/>
  <path d="M516 392C563 339 624 314 700 317C789 320 862 352 914 425C971 504 1020 554 1092 576V661H404V553C451 523 470 444 516 392Z" fill="#F7F4EC" fill-opacity="0.9"/>
  <rect x="468" y="473" width="558" height="188" rx="22" fill="#FCFBF7"/>
  <rect x="544" y="518" width="148" height="143" rx="18" fill="#C8DCA1"/>
  <rect x="724" y="518" width="246" height="95" rx="18" fill="#E6EAD9"/>
  <rect x="724" y="626" width="246" height="35" rx="17.5" fill="#D4E0BD"/>
  <rect x="1062" y="518" width="162" height="86" rx="18" fill="#2C5F3B"/>
  <rect x="1113" y="565" width="60" height="147" rx="30" fill="#7AD1D7"/>
  <path d="M110 745C160 644 251 573 368 543C332 642 264 715 171 767L110 745Z" fill="#5E8A49"/>
  <path d="M1500 742C1442 626 1335 547 1208 530C1250 650 1321 724 1430 776L1500 742Z" fill="#5E8A49"/>
  <text x="120" y="162" fill="#FFFFFF" font-family="Georgia, serif" font-size="62" font-style="italic">Madhuban Garden Resort</text>
  <text x="120" y="228" fill="#F1F6EB" font-family="Arial, sans-serif" font-size="26" letter-spacing="3">Lush green stays, wedding lawns, and peaceful hospitality</text>
  <defs>
    <linearGradient id="paint0_linear" x1="800" y1="0" x2="800" y2="1000" gradientUnits="userSpaceOnUse">
      <stop stop-color="#365E3C"/>
      <stop offset="0.55" stop-color="#214E31"/>
      <stop offset="1" stop-color="#15291A"/>
    </linearGradient>
  </defs>
</svg>
