<svg width="1600" height="1000" viewBox="0 0 1600 1000" fill="none" xmlns="http://www.w3.org/2000/svg">
  <rect width="1600" height="1000" fill="#F4F8F0"/>
  <rect width="1600" height="1000" fill="url(#poolTwoBg)"/>
  <path d="M0 760C154 725 292 721 436 749C592 780 709 841 864 844C1035 847 1178 777 1345 763C1433 756 1518 759 1600 772V1000H0V760Z" fill="#D5E4C8"/>
  <rect x="170" y="540" width="1260" height="190" rx="30" fill="#7FD6DF"/>
  <path d="M170 606C268 564 360 558 458 586C581 620 669 690 790 694C926 699 1022 619 1150 604C1247 593 1331 620 1430 672V730H170V606Z" fill="#98E0E7"/>
  <rect x="170" y="468" width="1260" height="78" rx="24" fill="#F6F1E4"/>
  <rect x="230" y="356" width="212" height="92" rx="24" fill="#FFFFFF" fill-opacity="0.86"/>
  <rect x="470" y="356" width="212" height="92" rx="24" fill="#FFFFFF" fill-opacity="0.86"/>
  <rect x="1158" y="356" width="196" height="92" rx="24" fill="#FFFFFF" fill-opacity="0.86"/>
  <circle cx="984" cy="286" r="72" fill="#7AA06A"/>
  <circle cx="1076" cy="258" r="52" fill="#93B77E"/>
  <text x="150" y="132" fill="#274631" font-family="Georgia, serif" font-size="60" font-style="italic">Pool Deck</text>
  <text x="150" y="892" fill="#31503A" font-family="Georgia, serif" font-size="28">Deck seating and open-air leisure woven into the green resort atmosphere</text>
  <defs>
    <linearGradient id="poolTwoBg" x1="800" y1="0" x2="800" y2="1000" gradientUnits="userSpaceOnUse">
      <stop stop-color="#FBFDF8"/>
      <stop offset="1" stop-color="#E9F1E0"/>
    </linearGradient>
  </defs>
</svg>
