<svg width="1600" height="1000" viewBox="0 0 1600 1000" fill="none" xmlns="http://www.w3.org/2000/svg">
  <rect width="1600" height="1000" fill="#CDEAE8"/>
  <rect width="1600" height="1000" fill="url(#poolOneBg)"/>
  <circle cx="1288" cy="144" r="112" fill="#F7E09D" fill-opacity="0.42"/>
  <path d="M0 706C147 672 310 674 470 710C629 746 744 798 902 804C1094 810 1237 739 1404 726C1466 721 1532 722 1600 730V1000H0V706Z" fill="#7FA46F"/>
  <rect x="126" y="530" width="1348" height="226" rx="32" fill="#6ECEDB"/>
  <path d="M126 594C220 554 318 546 418 578C523 611 609 669 716 676C860 685 968 603 1110 589C1222 578 1330 616 1474 678V756H126V594Z" fill="#89DDE6"/>
  <rect x="126" y="470" width="1348" height="78" rx="24" fill="#F6F0E1"/>
  <rect x="212" y="370" width="228" height="86" rx="22" fill="#F9F6EF"/>
  <rect x="1188" y="344" width="196" height="112" rx="24" fill="#F9F6EF"/>
  <circle cx="514" cy="350" r="56" fill="#6E9661"/>
  <circle cx="596" cy="320" r="42" fill="#8FB57D"/>
  <circle cx="668" cy="346" r="52" fill="#7EA36D"/>
  <text x="154" y="132" fill="#214A33" font-family="Georgia, serif" font-size="62" font-style="italic">Swimming Pool</text>
  <text x="154" y="892" fill="#264534" font-family="Georgia, serif" font-size="28">Open-air leisure, calm water, and a softer pace within the resort stay</text>
  <defs>
    <linearGradient id="poolOneBg" x1="800" y1="0" x2="800" y2="1000" gradientUnits="userSpaceOnUse">
      <stop stop-color="#E6F5F3"/>
      <stop offset="0.58" stop-color="#CFEAE7"/>
      <stop offset="1" stop-color="#B5DDD9"/>
    </linearGradient>
  </defs>
</svg>
