<svg width="1600" height="1000" viewBox="0 0 1600 1000" fill="none" xmlns="http://www.w3.org/2000/svg">
  <rect width="1600" height="1000" fill="#DDEBD4"/>
  <rect width="1600" height="1000" fill="url(#restaurantTwoBg)"/>
  <circle cx="1274" cy="148" r="110" fill="#F0D58F" fill-opacity="0.36"/>
  <path d="M0 720C149 681 291 677 446 708C593 737 707 789 862 794C1036 801 1182 735 1349 722C1436 715 1519 719 1600 730V1000H0V720Z" fill="#8FAE7E"/>
  <rect x="168" y="560" width="1264" height="90" rx="26" fill="#F5EEE0"/>
  <rect x="252" y="416" width="188" height="124" rx="24" fill="#FFF9EE"/>
  <rect x="502" y="416" width="188" height="124" rx="24" fill="#FFF9EE"/>
  <rect x="752" y="416" width="188" height="124" rx="24" fill="#FFF9EE"/>
  <rect x="1002" y="416" width="188" height="124" rx="24" fill="#FFF9EE"/>
  <circle cx="366" cy="330" r="62" fill="#6D9660"/>
  <circle cx="456" cy="306" r="40" fill="#88AF74"/>
  <circle cx="1218" cy="316" r="72" fill="#739A65"/>
  <text x="150" y="126" fill="#274631" font-family="Georgia, serif" font-size="60" font-style="italic">Outdoor Dining</text>
  <text x="150" y="892" fill="#31503A" font-family="Georgia, serif" font-size="28">Open-air seating framed by greenery, fresh light, and warm hospitality</text>
  <defs>
    <linearGradient id="restaurantTwoBg" x1="800" y1="0" x2="800" y2="1000" gradientUnits="userSpaceOnUse">
      <stop stop-color="#F7FBF2"/>
      <stop offset="1" stop-color="#D9E9CF"/>
    </linearGradient>
  </defs>
</svg>
