<svg width="1600" height="1000" viewBox="0 0 1600 1000" fill="none" xmlns="http://www.w3.org/2000/svg">
  <rect width="1600" height="1000" fill="#F5F2EA"/>
  <rect width="1600" height="1000" fill="url(#restaurantOneBg)"/>
  <path d="M0 758C142 720 275 712 420 738C584 767 706 829 868 834C1044 839 1183 773 1348 758C1432 750 1517 753 1600 768V1000H0V758Z" fill="#E6E5D9"/>
  <rect x="228" y="194" width="1146" height="560" rx="38" fill="#FFFFFF" fill-opacity="0.88"/>
  <rect x="286" y="252" width="1030" height="444" rx="28" fill="#EBE4D6"/>
  <rect x="352" y="334" width="252" height="182" rx="24" fill="#FAF6ED"/>
  <rect x="674" y="334" width="252" height="182" rx="24" fill="#FAF6ED"/>
  <rect x="996" y="334" width="252" height="182" rx="24" fill="#FAF6ED"/>
  <circle cx="478" cy="300" r="28" fill="#D2B46F"/>
  <circle cx="800" cy="272" r="36" fill="#D2B46F"/>
  <circle cx="1122" cy="300" r="28" fill="#D2B46F"/>
  <text x="152" y="126" fill="#29422F" font-family="Georgia, serif" font-size="60" font-style="italic">Indoor Dining</text>
  <text x="152" y="892" fill="#36503B" font-family="Georgia, serif" font-size="28">A calm restaurant mood with hosted meals and everyday resort comfort</text>
  <defs>
    <linearGradient id="restaurantOneBg" x1="800" y1="0" x2="800" y2="1000" gradientUnits="userSpaceOnUse">
      <stop stop-color="#FBF9F4"/>
      <stop offset="1" stop-color="#ECE6DA"/>
    </linearGradient>
  </defs>
</svg>
