<svg width="1200" height="900" viewBox="0 0 1200 900" fill="none" xmlns="http://www.w3.org/2000/svg">
  <rect width="1200" height="900" fill="#E9F2E2"/>
  <rect width="1200" height="900" fill="url(#paint0_linear)"/>
  <rect x="134" y="184" width="932" height="532" rx="36" fill="#FAFBF5"/>
  <rect x="184" y="430" width="532" height="194" rx="28" fill="#DCE8C7"/>
  <rect x="184" y="376" width="532" height="104" rx="24" fill="#C4D8A5"/>
  <rect x="762" y="254" width="232" height="302" rx="26" fill="#D0E4D6"/>
  <rect x="798" y="292" width="162" height="220" rx="18" fill="#F8FBF6"/>
  <rect x="248" y="332" width="196" height="44" rx="20" fill="#EDF4E0"/>
  <rect x="470" y="332" width="196" height="44" rx="20" fill="#EDF4E0"/>
  <circle cx="910" cy="404" r="48" fill="#B5D1AF"/>
  <path d="M90 730C160 624 286 541 417 514C372 621 290 709 166 774L90 730Z" fill="#7BA567"/>
  <path d="M1110 732C1043 618 912 534 775 515C820 626 904 714 1027 778L1110 732Z" fill="#7BA567"/>
  <text x="144" y="114" fill="#294934" font-family="Georgia, serif" font-size="56" font-style="italic">Garden Deluxe Room</text>
  <text x="144" y="162" fill="#4B6A57" font-family="Arial, sans-serif" font-size="22" letter-spacing="2">Nature-facing room placeholder</text>
  <defs>
    <linearGradient id="paint0_linear" x1="600" y1="0" x2="600" y2="900" gradientUnits="userSpaceOnUse">
      <stop stop-color="#F5F8EF"/>
      <stop offset="1" stop-color="#DDEBD5"/>
    </linearGradient>
  </defs>
</svg>
