<svg width="1200" height="900" viewBox="0 0 1200 900" fill="none" xmlns="http://www.w3.org/2000/svg">
  <rect width="1200" height="900" fill="#EEF3E7"/>
  <rect width="1200" height="900" fill="url(#paint0_linear)"/>
  <rect x="118" y="166" width="964" height="570" rx="34" fill="#FAFBF7"/>
  <rect x="170" y="436" width="542" height="208" rx="28" fill="#DCE8D0"/>
  <rect x="170" y="376" width="542" height="104" rx="24" fill="#C5DABF"/>
  <rect x="764" y="250" width="252" height="330" rx="28" fill="#D0E0C6"/>
  <rect x="806" y="294" width="164" height="200" rx="18" fill="#F8FBF6"/>
  <rect x="806" y="516" width="164" height="26" rx="13" fill="#F1F5E9"/>
  <circle cx="888" cy="391" r="44" fill="#8AB6C1"/>
  <path d="M110 744C180 624 295 546 421 519C376 629 297 716 188 779L110 744Z" fill="#749E62"/>
  <path d="M1085 728C1019 622 898 545 770 523C810 628 892 712 1010 769L1085 728Z" fill="#749E62"/>
  <text x="128" y="112" fill="#2F4A39" font-family="Georgia, serif" font-size="54" font-style="italic">Premium Deluxe Room</text>
  <text x="128" y="160" fill="#4B6A57" font-family="Arial, sans-serif" font-size="22" letter-spacing="2">Pool-touch room placeholder</text>
  <defs>
    <linearGradient id="paint0_linear" x1="600" y1="0" x2="600" y2="900" gradientUnits="userSpaceOnUse">
      <stop stop-color="#F7FAF2"/>
      <stop offset="1" stop-color="#E0EAD6"/>
    </linearGradient>
  </defs>
</svg>
