<svg width="1200" height="900" viewBox="0 0 1200 900" fill="none" xmlns="http://www.w3.org/2000/svg">
  <rect width="1200" height="900" fill="#EDF4E7"/>
  <rect width="1200" height="900" fill="url(#paint0_linear)"/>
  <rect x="130" y="176" width="940" height="554" rx="36" fill="#FBFCF8"/>
  <rect x="186" y="434" width="496" height="210" rx="28" fill="#D5E4C2"/>
  <rect x="186" y="372" width="496" height="104" rx="24" fill="#BFD59B"/>
  <rect x="744" y="252" width="246" height="306" rx="30" fill="#D5E3D8"/>
  <rect x="786" y="292" width="160" height="226" rx="18" fill="#F9FCF8"/>
  <path d="M101 742C171 624 292 541 424 511C377 626 293 713 176 779L101 742Z" fill="#789B61"/>
  <path d="M1095 734C1026 618 901 536 768 512C810 627 894 712 1007 777L1095 734Z" fill="#789B61"/>
  <text x="136" y="110" fill="#2D4936" font-family="Georgia, serif" font-size="54" font-style="italic">Standard Garden Room</text>
  <text x="136" y="160" fill="#4E6B58" font-family="Arial, sans-serif" font-size="22" letter-spacing="2">Comfort stay placeholder</text>
  <defs>
    <linearGradient id="paint0_linear" x1="600" y1="0" x2="600" y2="900" gradientUnits="userSpaceOnUse">
      <stop stop-color="#F8FBF4"/>
      <stop offset="1" stop-color="#E2EEDB"/>
    </linearGradient>
  </defs>
</svg>
