<svg width="1200" height="900" viewBox="0 0 1200 900" fill="none" xmlns="http://www.w3.org/2000/svg">
  <rect width="1200" height="900" fill="#EEF3E7"/>
  <rect width="1200" height="900" fill="url(#paint0_linear)"/>
  <rect x="120" y="170" width="960" height="560" rx="36" fill="#FAFCF7"/>
  <rect x="176" y="440" width="462" height="200" rx="28" fill="#D9E5C6"/>
  <rect x="176" y="382" width="462" height="102" rx="24" fill="#C9D7AF"/>
  <rect x="704" y="268" width="316" height="126" rx="28" fill="#E9E7DF"/>
  <rect x="704" y="424" width="316" height="180" rx="28" fill="#D7E5D0"/>
  <rect x="742" y="462" width="116" height="104" rx="18" fill="#FAFBF8"/>
  <rect x="878" y="462" width="104" height="104" rx="18" fill="#FAFBF8"/>
  <path d="M90 744C162 620 284 535 416 506C370 626 287 714 168 780L90 744Z" fill="#7C9C62"/>
  <path d="M1096 740C1024 614 893 532 756 510C801 630 888 718 1005 786L1096 740Z" fill="#7C9C62"/>
  <text x="128" y="110" fill="#2D4936" font-family="Georgia, serif" font-size="54" font-style="italic">Standard Family Room</text>
  <text x="128" y="160" fill="#4E6B58" font-family="Arial, sans-serif" font-size="22" letter-spacing="2">Family stay placeholder</text>
  <defs>
    <linearGradient id="paint0_linear" x1="600" y1="0" x2="600" y2="900" gradientUnits="userSpaceOnUse">
      <stop stop-color="#F8FBF4"/>
      <stop offset="1" stop-color="#E4ECD9"/>
    </linearGradient>
  </defs>
</svg>
