<svg width="900" height="1100" viewBox="0 0 900 1100" fill="none" xmlns="http://www.w3.org/2000/svg">
  <rect width="900" height="1100" fill="#E7F0DA"/>
  <rect width="900" height="1100" fill="url(#bg)"/>
  <path d="M0 842C86 781 185 751 298 766C411 781 518 836 635 833C740 830 815 787 900 724V1100H0V842Z" fill="#244D30"/>
  <path d="M360 1100L422 574H478L540 1100H360Z" fill="#F6EFE0"/>
  <rect x="250" y="506" width="400" height="22" rx="11" fill="#CDAA6F"/>
  <rect x="278" y="386" width="16" height="160" rx="8" fill="#E6D7BA"/>
  <rect x="606" y="386" width="16" height="160" rx="8" fill="#E6D7BA"/>
  <path d="M450 294C509 294 558 343 558 402V414H342V402C342 343 391 294 450 294Z" fill="#FCF7EE"/>
  <circle cx="344" cy="438" r="38" fill="#F2D7B5"/>
  <circle cx="450" cy="392" r="44" fill="#F8E8C8"/>
  <circle cx="556" cy="438" r="38" fill="#F2D7B5"/>
  <path d="M88 880C136 760 236 671 362 632C315 751 230 830 124 896L88 880Z" fill="#5D8D4C"/>
  <path d="M812 876C763 761 666 677 544 642C588 756 671 834 776 900L812 876Z" fill="#5D8D4C"/>
  <defs>
    <linearGradient id="bg" x1="450" y1="0" x2="450" y2="1100" gradientUnits="userSpaceOnUse">
      <stop stop-color="#61865A"/>
      <stop offset="0.6" stop-color="#365D3C"/>
      <stop offset="1" stop-color="#244D30"/>
    </linearGradient>
  </defs>
</svg>
