<svg width="900" height="1100" viewBox="0 0 900 1100" fill="none" xmlns="http://www.w3.org/2000/svg">
  <rect width="900" height="1100" fill="#1E3723"/>
  <rect width="900" height="1100" fill="url(#sky)"/>
  <circle cx="712" cy="168" r="94" fill="#F3D9A1" fill-opacity="0.52"/>
  <path d="M0 868C135 772 292 736 471 760C635 782 768 862 900 900V1100H0V868Z" fill="#214B2E"/>
  <path d="M92 892L186 614H232L146 892H92Z" fill="#F4E1B0"/>
  <path d="M336 892L430 614H476L390 892H336Z" fill="#F4E1B0"/>
  <path d="M580 892L674 614H720L634 892H580Z" fill="#F4E1B0"/>
  <circle cx="209" cy="592" r="34" fill="#F8EDCF"/>
  <circle cx="453" cy="592" r="34" fill="#F8EDCF"/>
  <circle cx="697" cy="592" r="34" fill="#F8EDCF"/>
  <rect x="182" y="902" width="536" height="26" rx="13" fill="#EFD39F"/>
  <defs>
    <linearGradient id="sky" x1="450" y1="0" x2="450" y2="1100" gradientUnits="userSpaceOnUse">
      <stop stop-color="#5D744E"/>
      <stop offset="0.48" stop-color="#36543A"/>
      <stop offset="1" stop-color="#1E3723"/>
    </linearGradient>
  </defs>
</svg>
