<svg width="900" height="1100" viewBox="0 0 900 1100" fill="none" xmlns="http://www.w3.org/2000/svg">
  <rect width="900" height="1100" fill="#F4EFE5"/>
  <rect width="900" height="1100" fill="url(#bg)"/>
  <circle cx="706" cy="150" r="88" fill="#F5DDA8" fill-opacity="0.45"/>
  <path d="M0 924C135 832 270 785 404 791C546 797 654 881 786 889C824 891 862 889 900 882V1100H0V924Z" fill="#214A2E"/>
  <rect x="280" y="468" width="132" height="340" rx="66" fill="#214C64"/>
  <rect x="488" y="434" width="132" height="374" rx="66" fill="#C76B3C"/>
  <circle cx="346" cy="390" r="68" fill="#E3C8A3"/>
  <circle cx="554" cy="356" r="68" fill="#E6C49D"/>
  <path d="M212 856C263 751 359 679 480 651C431 754 349 822 251 876L212 856Z" fill="#5A8A49"/>
  <path d="M694 858C643 752 547 680 426 654C474 756 555 823 654 879L694 858Z" fill="#5A8A49"/>
  <defs>
    <linearGradient id="bg" x1="450" y1="0" x2="450" y2="1100" gradientUnits="userSpaceOnUse">
      <stop stop-color="#748D59"/>
      <stop offset="0.58" stop-color="#4E663F"/>
      <stop offset="1" stop-color="#2E4B31"/>
    </linearGradient>
  </defs>
</svg>
