<svg width="1000" height="1200" viewBox="0 0 1000 1200" fill="none" xmlns="http://www.w3.org/2000/svg">
  <rect width="1000" height="1200" fill="#F2EEE4"/>
  <rect x="88" y="96" width="824" height="1008" rx="48" fill="#17321E"/>
  <rect x="128" y="136" width="744" height="928" rx="34" fill="url(#hall)"/>
  <path d="M220 1024V490C220 338 343 214 495 214C647 214 770 338 770 490V1024H220Z" fill="#F8F3EA"/>
  <path d="M286 1024V540C286 424 380 330 496 330C612 330 706 424 706 540V1024H286Z" fill="#EDE6D8"/>
  <rect x="420" y="582" width="152" height="442" rx="76" fill="#CFAE73"/>
  <path d="M352 1024C388 909 475 842 500 842C525 842 612 909 648 1024H352Z" fill="#D8C29A"/>
  <circle cx="346" cy="356" r="54" fill="#F5E3B7"/>
  <circle cx="496" cy="300" r="72" fill="#FAEED0"/>
  <circle cx="646" cy="356" r="54" fill="#F5E3B7"/>
  <circle cx="346" cy="356" r="22" fill="#FFF7E7"/>
  <circle cx="496" cy="300" r="30" fill="#FFF7E7"/>
  <circle cx="646" cy="356" r="22" fill="#FFF7E7"/>
  <rect x="176" y="176" width="96" height="740" rx="48" fill="#234A2D" fill-opacity="0.52"/>
  <rect x="728" y="176" width="96" height="740" rx="48" fill="#234A2D" fill-opacity="0.52"/>
  <defs>
    <linearGradient id="hall" x1="500" y1="136" x2="500" y2="1064" gradientUnits="userSpaceOnUse">
      <stop stop-color="#294C31"/>
      <stop offset="0.35" stop-color="#19331F"/>
      <stop offset="1" stop-color="#0F2214"/>
    </linearGradient>
  </defs>
</svg>
